<svg xmlns="http://www.w3.org/2000/svg" viewBox="0 0 128 128"><defs><style>.cls-1{fill:#fff;}</style></defs><title>Asset 1</title><g id="Layer_2" data-name="Layer 2"><g id="Capa_1" data-name="Capa 1"><path class="cls-1" d="M64,0a64,64,0,1,0,64,64A64,64,0,0,0,64,0ZM97.8,93.38l-5.13,5.13c-.91.91-3.59,1.48-3.68,1.48A60.43,60.43,0,0,1,28,38.86s.59-2.61,1.5-3.52l5.12-5.12a8.56,8.56,0,0,1,8-1.89l1.08.36a10.12,10.12,0,0,1,5.86,6.19l2.57,9.46A9.28,9.28,0,0,1,50,52.44l-3.43,3.42A36.33,36.33,0,0,0,72.15,81.42L75.57,78a9.29,9.29,0,0,1,8.1-2.13l9.46,2.59a10.13,10.13,0,0,1,6.19,5.85l.36,1.09A8.56,8.56,0,0,1,97.8,93.38Z"/></g></g></svg>