<?xml version="1.0" encoding="utf-8"?>
<!-- Generator: Adobe Illustrator 23.0.2, SVG Export Plug-In . SVG Version: 6.00 Build 0)  -->
<svg version="1.1" id="Layer_1" xmlns="http://www.w3.org/2000/svg" xmlns:xlink="http://www.w3.org/1999/xlink" x="0px" y="0px"
	 viewBox="0 0 175.1 172.6" style="enable-background:new 0 0 175.1 172.6;" xml:space="preserve">
<style type="text/css">
	.st0{fill:#FFCC00;}
</style>
<title>Power_BI</title>
<g id="Layer_1-2">
	<g id="XMLID_1_">
		<g>
			<path class="st0" d="M175.1,55v91.8c0,6.4-5.2,11.6-11.6,11.6c-1.1,0.1-2.2-0.1-3.2-0.4l-30.8-9v-9l33.2,9.8
				c0.2,0.2,0.5,0.2,0.8,0.2c0.1,0,0.1,0,0.2,0c1.5,0,2.7-1.3,2.6-2.8V55.4c0-1.3-0.8-2.4-2-2.8L18.5,10c-0.2-0.2-0.5-0.2-0.8-0.2
				c-0.1,0-0.1,0-0.2,0c-1.5,0-2.7,1.3-2.6,2.8v68.8H6.3V12.6C6.3,6.2,11.5,1,17.9,1C19,0.9,20.1,1,21.1,1.4L166.9,44
				C171.8,45.4,175.2,49.9,175.1,55z"/>
			<path class="st0" d="M119.1,68.6v93c0,3-1.3,5.8-3.2,7.8c-2,2-4.7,3.2-7.8,3.2c0,0-0.1,0-0.1,0c-6.1,0-10.9-4.9-10.9-11v-93
				c0,0,0-0.1,0-0.1c0-6,4.9-10.9,11-10.9c0,0,0,0,0,0c0,0,0.1,0,0.1,0C114.3,57.6,119.1,62.5,119.1,68.6z"/>
			<path class="st0" d="M86.7,151.4C86.7,151.4,86.7,151.4,86.7,151.4c0,6.1-4.9,11-11,11c0,0,0,0,0,0c0,0-0.1,0-0.1,0
				c-6.1,0-10.9-4.9-10.9-11V80c0,0,0-0.1,0-0.1c0-6,4.9-10.9,11-10.9c0,0,0,0,0,0c0,0,0.1,0,0.1,0c6.1,0,10.9,4.9,10.9,11V151.4z"
				/>
			<path class="st0" d="M54.5,90.4v50c-0.1,3-1.3,5.7-3.3,7.7c-2,2-4.7,3.2-7.7,3.3c0,0-0.1,0-0.1,0c-6.1,0-10.9-4.9-10.9-11v-50
				c0,0,0-0.1,0-0.1c0-6,4.9-10.9,11-10.9c0,0,0,0,0,0s0.1,0,0.1,0C49.7,79.4,54.5,84.3,54.5,90.4z"/>
			<path class="st0" d="M22.3,101.6v28.8c-0.1,6.1-4.9,10.9-11,11c-6.1,0-11-4.9-11-10.9c0,0,0-0.1,0-0.1v-28.8
				c0-6.1,4.9-11,10.9-11c0,0,0.1,0,0.1,0c0,0,0,0,0,0C17.4,90.6,22.3,95.4,22.3,101.6C22.3,101.5,22.3,101.5,22.3,101.6z"/>
		</g>
		<g>
		</g>
	</g>
</g>
</svg>
