<?xml version="1.0" encoding="utf-8"?>
<!-- Generator: Adobe Illustrator 23.0.2, SVG Export Plug-In . SVG Version: 6.00 Build 0)  -->
<svg version="1.1" id="Layer_1" xmlns="http://www.w3.org/2000/svg" xmlns:xlink="http://www.w3.org/1999/xlink" x="0px" y="0px"
	 viewBox="0 0 535.1 535.1" style="enable-background:new 0 0 535.1 535.1;" xml:space="preserve">
<style type="text/css">
	.st0{fill:#F0AB00;}
</style>
<title>Asset 1</title>
<g>
	<g id="Layer_1-2">
		<path class="st0" d="M254.5,350.1c-44.7,0-82-37.3-82-82c0-45.2,36.6-81.9,81.8-81.9c0.1,0,0.1,0,0.2,0c22.4,0,43.5,8.7,57.1,23.6
			l42.2-42.2c-26.1-26.1-60.8-41-100.6-41c-78.2,0-141.5,63.4-141.5,141.5s63.4,141.5,141.5,141.5c38.5,0,74.5-16.1,100.6-41
			l-42.2-42.2c-14.9,13.7-34.8,23.6-57.1,23.6"/>
		<path class="st0" d="M373.7,232.2c-19.9,0-36,16.1-36,36c0,19.9,16.1,36,36,36s36-16.1,36-36l0,0
			C409.7,248.3,393.6,232.2,373.7,232.2"/>
		<path class="st0" d="M0,535.1h535.1V0H0V535.1z M59.6,474.3V59.6h414.7v414.7L59.6,474.3z"/>
	</g>
</g>
</svg>
